0
SECTION
2
HEADER
9
$INSUNITS
70
4
9
$ACADVER
1
AC1014
9
$HANDSEED
5
FFFF
0
ENDSEC
0
SECTION
2
TABLES
0
TABLE
2
VPORT
5
8
100
AcDbSymbolTable
0
ENDTAB
0
TABLE
2
LTYPE
5
5
100
AcDbSymbolTable
0
LTYPE
5
14
100
AcDbSymbolTableRecord
100
AcDbLinetypeTableRecord
2
BYBLOCK
70
0
0
LTYPE
5
15
100
AcDbSymbolTableRecord
100
AcDbLinetypeTableRecord
2
BYLAYER
70
0
0
ENDTAB
0
TABLE
2
LAYER
5
2
100
AcDbSymbolTable
70
2
0
LAYER
5
50
100
AcDbSymbolTableRecord
100
AcDbLayerTableRecord
2
0
70
0
6
CONTINUOUS
0
ENDTAB
0
TABLE
2
STYLE
5
3
100
AcDbSymbolTable
70
1
0
STYLE
5
11
100
AcDbSymbolTableRecord
100
AcDbTextStyleTableRecord
2
STANDARD
70
0
0
ENDTAB
0
TABLE
2
VIEW
5
6
100
AcDbSymbolTable
70
0
0
ENDTAB
0
TABLE
2
UCS
5
7
100
AcDbSymbolTable
70
0
0
ENDTAB
0
TABLE
2
APPID
5
9
100
AcDbSymbolTable
70
2
0
APPID
5
12
100
AcDbSymbolTableRecord
100
AcDbRegAppTableRecord
2
ACAD
70
0
0
ENDTAB
0
TABLE
2
DIMSTYLE
5
A
100
AcDbSymbolTable
70
1
0
ENDTAB
0
TABLE
2
BLOCK_RECORD
5
1
100
AcDbSymbolTable
70
1
0
BLOCK_RECORD
5
1F
100
AcDbSymbolTableRecord
100
AcDbBlockTableRecord
2
*MODEL_SPACE
0
BLOCK_RECORD
5
1B
100
AcDbSymbolTableRecord
100
AcDbBlockTableRecord
2
*PAPER_SPACE
0
ENDTAB
0
ENDSEC
0
SECTION
2
BLOCKS
0
BLOCK
5
20
100
AcDbEntity
100
AcDbBlockBegin
2
*MODEL_SPACE
0
ENDBLK
5
21
100
AcDbEntity
100
AcDbBlockEnd
0
BLOCK
5
1C
100
AcDbEntity
100
AcDbBlockBegin
2
*PAPER_SPACE
0
ENDBLK
5
1D
100
AcDbEntity
100
AcDbBlockEnd
0
ENDSEC
0
SECTION
2
ENTITIES
0
LWPOLYLINE
5
100
100
AcDbEntity
8
0
100
AcDbPolyline
90
28
70
1
43
0.0
10
-66.224917625747807
20
-35.713036111675997
10
-10.762749859543996
20
-28.903138195779601
10
9.2372501404552096
20
-28.903138195779601
10
69.244286735023493
20
-36.271075835128229
42
-0.37220821990617242
10
71.877861613762747
20
-39.178700872521098
42
0.86413244981873394
10
75.806087939860646
20
-39.661026417098235
42
-0.37220821990616154
10
79.064852550268199
20
-37.476889696571128
10
111.449491290569
20
-41.453223344298102
42
0.41421356237304136
10
113.67832228066163
20
-39.711869727825878
10
122.83680343755802
20
34.877973568019499
42
0.41421356237316059
10
121.09544982108604
20
37.106804558112579
10
88.710811080785817
20
41.083138205839525
42
-0.37220821990616448
10
86.077236202046549
20
43.990763243232308
42
0.86413244981870929
10
82.149009875948764
20
44.473088787809488
42
-0.37220821990617631
10
78.890245265541097
20
42.288952067282338
10
9.2372501404550711
20
50.841264489288307
10
-10.762749859544201
20
50.841264489288307
10
-75.870876156265211
20
42.846991790734634
42
-0.37220821990613701
10
-79.129640766672679
20
45.0311285112615
42
0.86413244981864379
10
-83.057867092770465
20
44.548802966684406
42
-0.37220821990614372
10
-85.691441971509704
20
41.641177929291828
10
-118.075984988173
20
37.6648560349497
42
0.41421356237298945
10
-119.81733860464466
20
35.436025044856748
10
-110.65885744774802
20
-39.153818250988607
42
0.41421356237318252
10
-108.43002645765503
20
-40.89517186746086
10
-76.045483440992399
20
-36.918849973118846
42
-0.37220821990614777
10
-72.786718830584817
20
-39.102986693645704
42
0.86413244981861215
10
-68.85849250448706
20
-38.620661149068511
42
-0.37220821990613384
0
LWPOLYLINE
5
101
100
AcDbEntity
8
0
100
AcDbPolyline
90
8
70
1
43
0.0
10
-13.1740206785748
20
-25.169165722676698
10
-26.077120649911993
20
-26.75346718694367
42
-0.41421356237309981
10
-26.634328397435173
20
-26.318128782825497
10
-28.218629861702055
20
-13.415028811488394
42
-0.41421356237309281
10
-27.783291457583999
20
-12.857821063965149
10
-14.880191486246797
20
-11.273519599698245
42
-0.41421356237308782
10
-14.322983738723549
20
-11.708858003816294
10
-12.738682274456712
20
-24.611957975153501
42
-0.41421356237315182
0
LWPOLYLINE
5
102
100
AcDbEntity
8
0
100
AcDbPolyline
90
8
70
1
43
0.0
10
35.965095741807204
20
-14.5534830362924
10
34.380794277540282
20
-27.456583007629497
42
-0.41421356237315954
10
33.823586530016996
20
-27.891921411747667
10
20.920486558679908
20
-26.307619947480667
42
-0.41421356237303458
10
20.485148154561827
20
-25.750412199957506
10
22.069449618828749
20
-12.847312228620307
42
-0.41421356237309603
10
22.626657366351996
20
-12.411973824502251
10
35.529757337689098
20
-13.996275288769191
42
-0.41421356237315327
0
LWPOLYLINE
5
103
100
AcDbEntity
8
0
100
AcDbPolyline
90
8
70
1
43
0.0
10
-32.0820248673419
20
-27.490776714544801
10
-44.985124838679113
20
-29.075078178811662
42
-0.41421356237309992
10
-45.542332586202363
20
-28.639739774693599
10
-47.126634050469249
20
-15.736639803356393
42
-0.41421356237308748
10
-46.691295646351207
20
-15.17943205583315
10
-33.788195675014016
20
-13.595130591566246
42
-0.41421356237315665
10
-33.23098792749073
20
-14.030468995684391
10
-31.646686463223798
20
-26.933568967021504
42
-0.41421356237309537
0
LWPOLYLINE
5
104
100
AcDbEntity
8
0
100
AcDbPolyline
90
8
70
1
43
0.0
10
-50.990029056109101
20
-29.8123877064128
10
-63.893129027446292
20
-31.396689170679743
42
-0.41421356237315565
10
-64.450336774969557
20
-30.961350766561601
10
-66.034638239236457
20
-18.058250795224492
42
-0.41421356237309676
10
-65.599299835118387
20
-17.501043047701252
10
-52.696199863781203
20
-15.916741583434346
42
-0.41421356237309059
10
-52.138992116257945
20
-16.352079987552393
10
-50.554690651991109
20
-29.255179958889613
42
-0.41421356237309093
0
LWPOLYLINE
5
105
100
AcDbEntity
8
0
100
AcDbPolyline
90
8
70
1
43
0.0
10
-69.898033244876302
20
-32.133998698280898
10
-82.801133216213501
20
-33.718300162547763
42
-0.41421356237309515
10
-83.358340963736751
20
-33.2829617584297
10
-84.942642428003666
20
-20.379861787092505
42
-0.41421356237310097
10
-84.507304023885595
20
-19.822654039569251
10
-71.604204052548411
20
-18.23835257530234
42
-0.41421356237315848
10
-71.046996305025118
20
-18.673690979420503
10
-69.462694840758218
20
-31.576790950757605
42
-0.4142135623730947
0
LWPOLYLINE
5
106
100
AcDbEntity
8
0
100
AcDbPolyline
90
8
70
1
43
0.0
10
54.873099930574405
20
-16.875094028160504
10
53.288798466307483
20
-29.77819399949761
42
-0.41421356237315704
10
52.73159071878419
20
-30.213532403615769
10
39.828490747447105
20
-28.629230939348766
42
-0.41421356237303464
10
39.393152343329028
20
-28.072023191825608
10
40.977453807595964
20
-15.168923220488409
42
-0.41421356237309293
10
41.5346615551192
20
-14.733584816370351
10
54.43776152645632
20
-16.3178862806372
42
-0.41421356237309037
0
LWPOLYLINE
5
107
100
AcDbEntity
8
0
100
AcDbPolyline
90
8
70
1
43
0.0
10
73.781104119341606
20
-19.196705020028599
10
72.196802655074663
20
-32.099804991365708
42
-0.41421356237308865
10
71.639594907551398
20
-32.535143395483765
10
58.736494936214299
20
-30.950841931216875
42
-0.41421356237310214
10
58.30115653209613
20
-30.393634183693692
10
59.885457996363158
20
-17.490534212356508
42
-0.41421356237309093
10
60.442665743886394
20
-17.055195808238452
10
73.345765715223507
20
-18.639497272505295
42
-0.41421356237308737
0
LWPOLYLINE
5
108
100
AcDbEntity
8
0
100
AcDbPolyline
90
8
70
1
43
0.0
10
92.6891083081088
20
-21.518316011896701
10
91.104806843841871
20
-34.421415983233807
42
-0.41421356237309065
10
90.547599096318606
20
-34.85675438735187
10
77.644499124981493
20
-33.272452923084991
42
-0.41421356237315859
10
77.209160720863338
20
-32.715245175561691
10
78.793462185130338
20
-19.812145204224606
42
-0.41421356237310236
10
79.350669932653517
20
-19.37680680010644
10
92.253769903990701
20
-20.961108264373408
42
-0.41421356237309792
0
LWPOLYLINE
5
109
100
AcDbEntity
8
0
100
AcDbPolyline
90
8
70
1
43
0.0
10
111.59711249687601
20
-23.839927003764704
10
110.01281103260868
20
-36.743026975101863
42
-0.41421356237277224
10
109.455603285086
20
-37.178365379220047
10
96.552503313748602
20
-35.594063914953068
42
-0.41421356237310825
10
96.117164909630546
20
-35.036856167429789
10
97.701466373897432
20
-22.133756196092694
42
-0.41421356237314838
10
98.258674121420711
20
-21.698417791974549
10
111.16177409275804
20
-23.282719256241265
42
-0.41421356237279233
0
LWPOLYLINE
5
110
100
AcDbEntity
8
0
100
AcDbPolyline
90
8
70
1
43
0.0
10
-21.371595777783501
20
6.6187434369838503
10
-19.787294313516536
20
-6.2843565343533445
42
-0.41421356237307977
10
-20.2226327176346
20
-6.8415642818765789
10
-33.125732688971809
20
-8.42586574614349
42
-0.41421356237310025
10
-33.682940436495066
20
-7.9905273420254188
10
-35.26724190076186
20
4.9125726293118257
42
-0.41421356237307028
10
-34.831903496643797
20
5.469780376835037
10
-21.928803525306595
20
7.0540818411018975
42
-0.41421356237305873
0
LWPOLYLINE
5
111
100
AcDbEntity
8
0
100
AcDbPolyline
90
8
70
1
43
0.0
10
-40.279599966550599
20
4.2971324451158104
10
-38.695298502283741
20
-8.6059675262213862
42
-0.41421356237307599
10
-39.130636906401797
20
-9.1631752737446153
10
-52.033736877739003
20
-10.747476738011573
42
-0.41421356237315249
10
-52.590944625262289
20
-10.312138333893408
10
-54.175246089529161
20
2.5909616374437618
42
-0.41421356237314161
10
-53.739907685410998
20
3.1481693849670078
10
-40.836807714073807
20
4.7324708492339491
42
-0.41421356237305879
0
LWPOLYLINE
5
112
100
AcDbEntity
8
0
100
AcDbPolyline
90
8
70
1
43
0.0
10
-59.1876041553178
20
1.9755214532477703
10
-57.603302691050956
20
-10.927578518089407
42
-0.4142135623730927
10
-58.038641095169012
20
-11.484786265612659
10
-70.941741066506196
20
-13.069087729879579
42
-0.41421356237308821
10
-71.498948814029461
20
-12.633749325761507
10
-73.083250278296262
20
0.26935064557573152
42
-0.4142135623730705
10
-72.647911874178206
20
0.82655839309895218
10
-59.744811902841015
20
2.4108598573659088
42
-0.41421356237305895
0
LWPOLYLINE
5
113
100
AcDbEntity
8
0
100
AcDbPolyline
90
8
70
1
43
0.0
10
-78.095608344084994
20
-0.34608953862027103
10
-76.511306879818036
20
-13.249189509957493
42
-0.41421356237310059
10
-76.946645283936206
20
-13.806397257480674
10
-89.849745255273405
20
-15.390698721747674
42
-0.41421356237310675
10
-90.406953002796584
20
-14.955360317629498
10
-91.99125446706347
20
-2.0522603462923166
42
-0.41421356237307705
10
-91.555916062945414
20
-1.4950525987690928
10
-78.652816091608216
20
0.089248865497875696
42
-0.41421356237305917
0
LWPOLYLINE
5
114
100
AcDbEntity
8
0
100
AcDbPolyline
90
8
70
1
43
0.0
10
-97.003612532852216
20
-2.6677005304883101
10
-95.419311068585344
20
-15.570800501825506
42
-0.41421356237309392
10
-95.8546494727034
20
-16.12800824934876
10
-108.757749444041
20
-17.712309713615724
42
-0.41421356237277313
10
-109.31495719156366
20
-17.276971309497561
10
-110.89925865583066
20
-4.3738713381603169
42
-0.41421356237281265
10
-110.46392025171301
20
-3.8166635906371846
10
-97.560820280375395
20
-2.2323621263701798
42
-0.41421356237305373
0
LWPOLYLINE
5
115
100
AcDbEntity
8
0
100
AcDbPolyline
90
8
70
1
43
0.0
10
-33.1472088640351
20
24.365942129817
10
-31.562907399768129
20
11.462842158479909
42
-0.41421356237310136
10
-31.998245803886206
20
10.905634410956626
10
-44.901345775223504
20
9.3213329466897044
42
-0.41421356237305812
10
-45.458553522746641
20
9.7566713508077889
10
-47.042854987013563
20
22.659771322145005
42
-0.4142135623730876
10
-46.607516582895514
20
23.216979069668259
10
-33.704416611558301
20
24.801280533935088
42
-0.41421356237315438
0
LWPOLYLINE
5
116
100
AcDbEntity
8
0
100
AcDbPolyline
90
8
70
1
43
0.0
10
-14.239204675267899
20
26.687553121685102
10
-12.65490321100093
20
13.784453150347911
42
-0.41421356237315249
10
-13.090241615119089
20
13.227245402824616
10
-25.993341586456307
20
11.64294393855775
42
-0.41421356237303636
10
-26.55054933397944
20
12.078282342675807
10
-28.134850798246362
20
24.981382314013008
42
-0.41421356237309742
10
-27.699512394128295
20
25.538590061536265
10
-14.796412422791089
20
27.122891525803105
42
-0.41421356237309065
0
LWPOLYLINE
5
117
100
AcDbEntity
8
0
100
AcDbPolyline
90
8
70
1
43
0.0
10
-52.055213052802301
20
22.044331137949001
10
-50.47091158853533
20
9.1412311666118065
42
-0.41421356237308232
10
-50.906249992653407
20
8.5840234190885614
10
-63.809349963990698
20
6.9997219548216556
42
-0.41421356237306112
10
-64.366557711513849
20
7.4350603589397473
10
-65.950859175780764
20
20.338160330276907
42
-0.41421356237309676
10
-65.515520771662693
20
20.89536807780016
10
-52.612420800325495
20
22.479669542066997
42
-0.41421356237309293
0
LWPOLYLINE
5
118
100
AcDbEntity
8
0
100
AcDbPolyline
90
8
70
1
43
0.0
10
-24.865854701370704
20
30.974444095657802
10
-37.768954672707906
20
29.390142631390948
42
-0.41421356237308665
10
-38.326162420231157
20
29.825481035508993
10
-39.910463884498036
20
42.728581006846191
42
-0.41421356237309509
10
-39.475125480380008
20
43.285788754369449
10
-26.572025509042806
20
44.870090218636349
42
-0.41421356237315915
10
-26.014817761519531
20
44.434751814518201
10
-24.430516297252588
20
31.531651843180999
42
-0.41421356237303564
0
LWPOLYLINE
5
119
100
AcDbEntity
8
0
100
AcDbPolyline
90
8
70
1
43
0.0
10
18.079758099238099
20
-6.2620052632232701
10
19.664059563504953
20
6.6410947081138971
42
-0.41421356237310325
10
20.2212673110282
20
7.0764331122319568
10
33.124367282365398
20
5.492131647965028
42
-0.4142135623730776
10
33.559705686483461
20
4.9349239004418042
10
31.975404222216554
20
-7.9681760708953728
42
-0.41421356237311174
10
31.4181964746933
20
-8.4035144750134485
10
18.515096503356109
20
-6.8192130107464619
42
-0.41421356237309526
0
LWPOLYLINE
5
120
100
AcDbEntity
8
0
100
AcDbPolyline
90
8
70
1
43
0.0
10
52.467709875250705
20
2.6133129085737199
10
50.883408410983755
20
-10.289787062763507
42
-0.4142135623731002
10
50.32620066346049
20
-10.725125466881549
10
37.423100692123299
20
-9.1408240026146039
42
-0.41421356237308232
10
36.987762288005243
20
-8.5836162550913553
10
38.57206375227215
20
4.3194837162458173
42
-0.41421356237310941
10
39.129271499795401
20
4.7548221203638867
10
52.032371471132599
20
3.1705206560969872
42
-0.41421356237307705
0
LWPOLYLINE
5
121
100
AcDbEntity
8
0
100
AcDbPolyline
90
8
70
1
43
0.0
10
71.375714064017799
20
0.29170191670564399
10
69.791412599750956
20
-12.611398054631508
42
-0.41421356237315249
10
69.234204852227691
20
-13.046736458749649
10
56.331104880890507
20
-11.462434994482658
42
-0.41421356237309687
10
55.895766476772444
20
-10.905227246959406
10
57.480067941039358
20
1.997872724377735
42
-0.41421356237310808
10
58.037275688562602
20
2.4332111284958065
10
70.9403756598998
20
0.84890966422880643
42
-0.41421356237308443
0
LWPOLYLINE
5
122
100
AcDbEntity
8
0
100
AcDbPolyline
90
8
70
1
43
0.0
10
90.283718252784993
20
-2.02990907516243
10
88.699416788518036
20
-14.933009046499595
42
-0.41421356237309814
10
88.1422090409948
20
-15.36834745061765
10
75.239109069657701
20
-13.784045986350765
42
-0.41421356237309614
10
74.803770665539645
20
-13.226838238827504
10
76.388072129806545
20
-0.32373826749034856
42
-0.4142135623730519
10
76.945279877329696
20
0.11160013662773818
10
89.84837984866688
20
-1.472701327639248
42
-0.41421356237313434
0
LWPOLYLINE
5
123
100
AcDbEntity
8
0
100
AcDbPolyline
90
8
70
1
43
0.0
10
24.285805372177801
20
11.6652952096878
10
11.382705400840603
20
13.249596673954727
42
-0.41421356237303658
10
10.947366996722515
20
13.806804421477899
10
12.531668460989433
20
26.709904392815112
42
-0.41421356237315032
10
13.088876208512708
20
27.145242796933257
10
25.991976179849896
20
25.560941332666264
42
-0.41421356237309509
10
26.427314583967959
20
25.003733585143006
10
24.843013119701016
20
12.100633613805913
42
-0.41421356237315926
0
LWPOLYLINE
5
124
100
AcDbEntity
8
0
100
AcDbPolyline
90
8
70
1
43
0.0
10
45.335318772735206
20
22.682122593275
10
43.751017308468278
20
9.7790226219377701
42
-0.41421356237310508
10
43.193809560944999
20
9.3436842178196891
10
30.2907095896078
20
10.927985682086629
42
-0.41421356237309581
10
29.85537118548973
20
11.485193429609899
10
31.439672649756631
20
24.388293400946996
42
-0.4142135623731576
10
31.996880397279902
20
24.823631805065158
10
44.899980368617101
20
23.23933034079819
42
-0.41421356237304041
0
LWPOLYLINE
5
125
100
AcDbEntity
8
0
100
AcDbPolyline
90
8
70
1
43
0.0
10
64.243322961502301
20
20.360511601406902
10
62.659021497235372
20
7.4574116300697035
42
-0.41421356237304396
10
62.101813749712207
20
7.0220732259515977
10
49.198713778375009
20
8.606374690218539
42
-0.41421356237307788
10
48.763375374256924
20
9.1635824377417787
10
50.347676838523853
20
22.066682409079004
42
-0.41421356237309126
10
50.904884586047103
20
22.50202081319706
10
63.807984557384302
20
20.917719348930103
42
-0.41421356237308993
0
LWPOLYLINE
5
126
100
AcDbEntity
8
0
100
AcDbPolyline
90
8
70
1
43
0.0
10
83.151327150269495
20
18.0389006095388
10
81.56702568600258
20
5.1358006382016335
42
-0.41421356237311269
10
81.009817938479301
20
4.7004622340835294
10
68.106717967142202
20
6.2847636983504529
42
-0.4142135623731521
10
67.671379563024033
20
6.8419714458737202
10
69.255681027291033
20
19.745071417210898
42
-0.41421356237303858
10
69.812888774814198
20
20.180409821328972
10
82.715988746151396
20
18.596108357062015
42
-0.41421356237314777
0
LWPOLYLINE
5
127
100
AcDbEntity
8
0
100
AcDbPolyline
90
8
70
1
43
0.0
10
-70.963217241569495
20
19.722720146080999
10
-69.378915777302538
20
6.8196201747437692
42
-0.41421356237307327
10
-69.814254181420594
20
6.2624124272205215
10
-82.717354152757821
20
4.6781109629536344
42
-0.41421356237311285
10
-83.274561900281043
20
5.1134493670717074
10
-84.858863364547972
20
18.016549338408904
42
-0.41421356237309542
10
-84.423524960429916
20
18.573757085932165
10
-71.520424989092703
20
20.158058550199016
42
-0.41421356237309598
0
LWPOLYLINE
5
128
100
AcDbEntity
8
0
100
AcDbPolyline
90
8
70
1
43
0.0
10
22.722980082974203
20
31.554003114311104
10
24.307281547241146
20
44.457103085648285
42
-0.41421356237309565
10
24.864489294764397
20
44.892441489766355
10
37.767589266101609
20
43.308140025499462
42
-0.41421356237309864
10
38.202927670219651
20
42.75093227797619
10
36.618626205952658
20
29.847832306639006
42
-0.41421356237303275
10
36.061418458429507
20
29.412493902520929
10
23.158318487092298
20
30.996795366787889
42
-0.41421356237315182
0
LWPOLYLINE
5
129
100
AcDbEntity
8
0
100
AcDbPolyline
90
8
70
1
43
0.0
10
-91.169289820701408
20
-34.7457805967966
10
-104.07238979203899
20
-36.330082061063621
42
-0.41421356237276574
10
-104.62959753956167
20
-35.894743656945465
10
-106.21389900382869
20
-22.99164368560816
42
-0.41421356237284052
10
-105.778560599711
20
-22.434435938084988
10
-92.875460628373503
20
-20.850134473818006
42
-0.41421356237309731
10
-92.31825288085021
20
-21.285472877936105
10
-90.733951416583395
20
-34.188572849273413
42
-0.41421356237309198
0
LWPOLYLINE
5
130
100
AcDbEntity
8
0
100
AcDbPolyline
90
8
70
1
43
0.0
10
-93.449755690455504
20
3.3603377527137903
10
-106.35285566179299
20
1.7760362884468195
42
-0.41421356237278817
10
-106.91006340931567
20
2.2113746925650006
10
-108.4943648735827
20
15.114474663902243
42
-0.41421356237279428
10
-108.05902646946498
20
15.671682411425316
10
-95.155926498127513
20
17.255983875692309
42
-0.41421356237309298
10
-94.598718750604206
20
16.820645471574199
10
-93.01441728633732
20
3.9175455002370594
42
-0.41421356237313689
0
LWPOLYLINE
5
131
100
AcDbEntity
8
0
100
AcDbPolyline
90
8
70
1
43
0.0
10
109.150081046362
20
14.846655028384301
10
107.56577958209564
20
1.9435550570470392
42
-0.41421356237330453
10
107.00857183457201
20
1.5082166529290808
10
94.105471863234897
20
3.0925181171959553
42
-0.4142135623730846
10
93.67013345911684
20
3.6497258647191888
10
95.25443492338384
20
16.552825836056396
42
-0.41421356237304369
10
95.811642670907005
20
16.98816424017447
10
108.71474264224395
20
15.40386277590698
42
-0.41421356237348012
0
LWPOLYLINE
5
132
100
AcDbEntity
8
0
100
AcDbPolyline
90
8
70
1
43
0.0
10
98.216536453155001
20
-2.5001817618879403
10
111.11963642449203
20
-4.084483226154787
42
-0.41421356237347229
10
111.55497482861068
20
-4.6416909736781822
10
109.97067336434367
20
-17.544790945015379
42
-0.41421356237326673
10
109.41346561682003
20
-17.980129349133314
10
96.510365645482921
20
-16.39582788486646
42
-0.41421356237310597
10
96.075027241364751
20
-15.838620137343295
10
97.659328705631708
20
-2.9355201660060386
42
-0.4142135623730982
0
LWPOLYLINE
5
133
100
AcDbEntity
8
0
100
AcDbPolyline
90
8
70
1
43
0.0
10
-55.59111337157951
20
27.201856701208101
10
-68.494213342916694
20
25.617555236941236
42
-0.41421356237304824
10
-69.051421090439874
20
26.052893641059306
10
-70.63572255470676
20
38.955993612396504
42
-0.41421356237308932
10
-70.200384150588718
20
39.513201359919762
10
-57.297284179251513
20
41.09750282418667
42
-0.41421356237315232
10
-56.740076431728227
20
40.662164420068514
10
-55.155774967461319
20
27.759064448731408
42
-0.41421356237316398
0
LWPOLYLINE
5
134
100
AcDbEntity
8
0
100
AcDbPolyline
90
8
70
1
43
0.0
10
66.786677128638303
20
25.6399065080711
10
53.883577157300991
20
27.224207972338053
42
-0.41421356237309154
10
53.448238753182963
20
27.781415719861307
10
55.032540217449856
20
40.684515691198513
42
-0.41421356237308665
10
55.589747964973093
20
41.119854095316555
10
68.492847936310298
20
39.535552631049654
42
-0.41421356237309381
10
68.928186340428354
20
38.978344883526404
10
67.343884876161482
20
26.075244912189198
42
-0.41421356237303053
0
CIRCLE
5
135
100
AcDbEntity
8
0
100
AcDbCircle
10
73.877316886399001
20
-39.1320252608337
30
0
40
0.999999999999996
210
0
220
0
230
1
0
CIRCLE
5
136
100
AcDbEntity
8
0
100
AcDbCircle
10
-70.857947777123499
20
-38.573985537380899
30
0
40
0.999999999999996
210
0
220
0
230
1
0
CIRCLE
5
137
100
AcDbEntity
8
0
100
AcDbCircle
10
84.07778092941021
20
43.944087631544903
30
0
40
0.999999999999996
210
0
220
0
230
1
0
CIRCLE
5
138
100
AcDbEntity
8
0
100
AcDbCircle
10
-81.058411820134097
20
44.502127354996802
30
0
40
0.999999999999996
210
0
220
0
230
1
0
ENDSEC
0
SECTION
2
OBJECTS
0
DICTIONARY
5
C
100
AcDbDictionary
3
ACAD_GROUP
350
D
3
ACAD_MLINESTYLE
350
17
0
DICTIONARY
5
D
100
AcDbDictionary
0
DICTIONARY
5
1A
330
C
100
AcDbDictionary
0
DICTIONARY
5
17
100
AcDbDictionary
0
ENDSEC
0
EOF
